<svg width="273" height="37" viewBox="0 0 273 37" fill="none" xmlns="http://www.w3.org/2000/svg">
<path d="M63.8575 36.2953H58.1432C58.0118 36.2953 57.9462 36.2132 57.9462 36.049L57.9954 1.39392C57.9954 1.26255 58.0775 1.19687 58.2417 1.19687H63.8575C64.0217 1.19687 64.1038 1.26255 64.1038 1.39392L64.0545 15.1131H71.6161V1.39392C71.6161 1.26255 71.6818 1.19687 71.8131 1.19687H77.4289C77.5931 1.19687 77.6752 1.26255 77.6752 1.39392L77.7737 36.049C77.7737 36.2132 77.6916 36.2953 77.5274 36.2953H71.8624C71.6982 36.2953 71.6161 36.2132 71.6161 36.049V21.2214H64.0545V36.049C64.0545 36.2132 63.9888 36.2953 63.8575 36.2953Z" fill="white"/>
<path d="M80.1875 36.049L86.4436 1.39392C86.4765 1.26255 86.5586 1.19687 86.6899 1.19687H94.0052C94.1365 1.19687 94.2186 1.26255 94.2515 1.39392L100.261 36.049C100.278 36.2132 100.212 36.2953 100.064 36.2953H94.4732C94.3089 36.2953 94.2186 36.2132 94.2022 36.049L93.6603 32.3544H86.7884L86.2466 36.049C86.2302 36.2132 86.1481 36.2953 86.0003 36.2953H80.3845C80.2532 36.2953 80.1875 36.2132 80.1875 36.049ZM90.5815 12.7978L90.286 10.9259L90.0643 12.7978L87.7983 26.9603H92.6505L90.5815 12.7978Z" fill="white"/>
<path d="M109.325 36.2953H103.66C103.496 36.2953 103.414 36.2132 103.414 36.049L103.513 1.39392C103.513 1.26255 103.578 1.19687 103.71 1.19687H113.414C116.501 1.19687 118.939 2.14104 120.729 4.02938C122.535 5.90129 123.439 8.45465 123.439 11.6895C123.439 14.054 122.971 16.1147 122.035 17.8717C121.082 19.6123 119.851 20.9587 118.34 21.9111C116.829 22.8635 115.187 23.3397 113.414 23.3397H109.572V36.049C109.572 36.2132 109.49 36.2953 109.325 36.2953ZM113.414 7.18208L109.572 7.23134V17.2313H113.414C114.481 17.2313 115.409 16.7223 116.197 15.7042C116.985 14.6697 117.379 13.3315 117.379 11.6895C117.379 10.3758 117.026 9.3003 116.32 8.46286C115.614 7.609 114.646 7.18208 113.414 7.18208Z" fill="white"/>
<path d="M132.774 36.2953H127.109C126.944 36.2953 126.862 36.2132 126.862 36.049L126.961 1.39392C126.961 1.26255 127.026 1.19687 127.158 1.19687H136.862C139.949 1.19687 142.388 2.14104 144.177 4.02938C145.984 5.90129 146.887 8.45465 146.887 11.6895C146.887 14.054 146.419 16.1147 145.483 17.8717C144.53 19.6123 143.299 20.9587 141.788 21.9111C140.278 22.8635 138.636 23.3397 136.862 23.3397H133.02V36.049C133.02 36.2132 132.938 36.2953 132.774 36.2953ZM136.862 7.18208L133.02 7.23134V17.2313H136.862C137.93 17.2313 138.857 16.7223 139.645 15.7042C140.434 14.6697 140.828 13.3315 140.828 11.6895C140.828 10.3758 140.475 9.3003 139.769 8.46286C139.063 7.609 138.094 7.18208 136.862 7.18208Z" fill="white"/>
<path d="M159.793 36.2953H154.005C153.89 36.2953 153.833 36.2296 153.833 36.0982L153.882 21.7633L147.133 1.39392C147.1 1.26255 147.15 1.19687 147.281 1.19687H152.897C153.061 1.19687 153.159 1.26255 153.192 1.39392L156.911 14.9653L160.704 1.39392C160.737 1.26255 160.819 1.19687 160.951 1.19687H166.616C166.747 1.19687 166.796 1.26255 166.764 1.39392L159.941 21.5663L159.99 36.0982C159.99 36.2296 159.925 36.2953 159.793 36.2953Z" fill="white"/>
<path d="M187.176 36.2953H178.136C178.005 36.2953 177.939 36.2132 177.939 36.049L178.038 1.39392C178.038 1.26255 178.103 1.19687 178.235 1.19687H187.939C189.827 1.19687 191.543 1.65664 193.087 2.57618C194.598 3.49572 195.788 4.71903 196.658 6.24612C197.529 7.75679 197.964 9.39882 197.964 11.1722C197.964 12.6172 197.635 13.9637 196.978 15.2116C196.322 16.4596 195.542 17.4694 194.639 18.2412C195.607 19.21 196.363 20.3347 196.905 21.6155C197.446 22.8963 197.717 24.2428 197.717 25.6549C197.717 27.6089 197.249 29.3906 196.313 30.9997C195.361 32.6089 194.089 33.8979 192.496 34.8667C190.903 35.8191 189.13 36.2953 187.176 36.2953ZM187.939 7.18208H184.097V15.1131H187.939C189.105 15.1131 190.049 14.7026 190.772 13.8816C191.494 13.0441 191.855 12.141 191.855 11.1722C191.855 10.1049 191.469 9.17714 190.698 8.38897C189.926 7.58437 189.006 7.18208 187.939 7.18208ZM187.176 21.2214H184.097L184.047 30.1377H187.176C188.391 30.1377 189.433 29.6943 190.304 28.8076C191.174 27.9209 191.609 26.87 191.609 25.6549C191.609 24.4398 191.174 23.3971 190.304 22.5269C189.433 21.6566 188.391 21.2214 187.176 21.2214Z" fill="white"/>
<path d="M210.673 36.7879C208.883 36.7879 207.233 36.3281 205.722 35.4086C204.228 34.4891 203.021 33.2657 202.102 31.7387C201.198 30.1951 200.747 28.5039 200.747 26.6648L200.796 10.6796C200.796 8.80769 201.248 7.12461 202.151 5.63036C203.038 4.11969 204.236 2.91279 205.747 2.00968C207.258 1.09014 208.9 0.630371 210.673 0.630371C212.512 0.630371 214.162 1.08193 215.624 1.98505C217.102 2.88816 218.284 4.10327 219.171 5.63036C220.074 7.14103 220.525 8.82411 220.525 10.6796L220.574 26.6648C220.574 28.5039 220.131 30.1869 219.244 31.714C218.341 33.2575 217.143 34.4891 215.648 35.4086C214.154 36.3281 212.496 36.7879 210.673 36.7879ZM210.673 30.7042C211.691 30.7042 212.578 30.2937 213.333 29.4727C214.088 28.6352 214.466 27.6993 214.466 26.6648L214.417 10.6796C214.417 9.56302 214.064 8.61885 213.358 7.8471C212.652 7.07534 211.757 6.68947 210.673 6.68947C209.639 6.68947 208.752 7.06713 208.013 7.82247C207.274 8.5778 206.905 9.53018 206.905 10.6796V26.6648C206.905 27.7649 207.274 28.7173 208.013 29.5219C208.752 30.3101 209.639 30.7042 210.673 30.7042Z" fill="white"/>
<path d="M235.156 36.2953H229.047C228.9 36.2953 228.817 36.2132 228.801 36.049L222.84 1.39392C222.808 1.26255 222.857 1.19687 222.988 1.19687H228.653C228.785 1.19687 228.867 1.26255 228.9 1.39392L232.126 24.1771L235.451 1.39392C235.484 1.26255 235.583 1.19687 235.747 1.19687H240.303C240.435 1.19687 240.517 1.26255 240.55 1.39392L243.826 24.1771L247.101 1.39392C247.134 1.26255 247.216 1.19687 247.348 1.19687H252.964C253.128 1.19687 253.193 1.26255 253.161 1.39392L247.151 36.049C247.134 36.1147 247.085 36.1721 247.003 36.2214L246.904 36.2953H240.796C240.698 36.2953 240.615 36.2132 240.55 36.049L237.964 17.9456L235.402 36.049C235.386 36.2132 235.303 36.2953 235.156 36.2953Z" fill="white"/>
<path d="M272.619 36.2953H256.313C256.182 36.2953 256.116 36.2132 256.116 36.049L256.165 1.44318C256.165 1.27897 256.248 1.19687 256.412 1.19687H262.028C262.192 1.19687 262.274 1.27897 262.274 1.44318L262.225 30.0884H272.619C272.783 30.0884 272.865 30.1705 272.865 30.3347V36.049C272.865 36.2132 272.783 36.2953 272.619 36.2953Z" fill="white"/>
<path fill-rule="evenodd" clip-rule="evenodd" d="M7.11362 13.9922C7.11362 16.2099 7.5054 18.3993 8.26023 20.4328C9.015 22.4661 10.1138 24.2931 11.4793 25.8168C12.8442 27.3398 14.4458 28.5273 16.1825 29.33C17.9179 30.1322 19.7637 30.5391 21.6178 30.5391C23.4719 30.5391 25.3176 30.1322 27.0531 29.33C28.7898 28.5273 30.3914 27.3398 31.7563 25.8168C33.1217 24.2931 34.2206 22.4661 34.9753 20.4328C35.7302 18.3993 36.1219 16.2099 36.1219 13.9922H42.3706C42.3706 16.941 41.8504 19.8675 40.8334 22.6073C39.8163 25.3472 38.3182 27.8574 36.4097 29.987C34.5007 32.1172 32.2156 33.8277 29.6748 35.0021C27.1326 36.1771 24.3937 36.7878 21.6178 36.7878C18.8419 36.7878 16.103 36.1771 13.5608 35.0021C11.0199 33.8277 8.73486 32.1172 6.82584 29.987C4.9174 27.8574 3.41922 25.3472 2.40216 22.6073C1.38516 19.8675 0.86499 16.941 0.86499 13.9922H7.11362Z" fill="white"/>
<path fill-rule="evenodd" clip-rule="evenodd" d="M19.2076 0.742432V17.9813H12.959V0.742432H19.2076Z" fill="white"/>
<path fill-rule="evenodd" clip-rule="evenodd" d="M30.2766 0.742432V17.9813H24.028V0.742432H30.2766Z" fill="white"/>
</svg>
