<svg width="172" height="173" viewBox="0 0 172 173" fill="none" xmlns="http://www.w3.org/2000/svg">
<path d="M171.673 86.537C171.673 133.865 133.306 172.232 85.9781 172.232C38.6502 172.232 0.283447 133.865 0.283447 86.537C0.283447 39.2092 38.6502 0.842407 85.9781 0.842407C133.306 0.842407 171.673 39.2092 171.673 86.537Z" fill="#FAF4EE"/>
<path fill-rule="evenodd" clip-rule="evenodd" d="M59.0048 75.9172C59.0048 80.0415 59.7334 84.1131 61.1371 87.8948C62.5407 91.6761 64.5842 95.0736 67.1236 97.9072C69.6618 100.74 72.6403 102.948 75.8701 104.441C79.0974 105.933 82.5299 106.689 85.978 106.689C89.426 106.689 92.8585 105.933 96.0859 104.441C99.3156 102.948 102.294 100.74 104.832 97.9072C107.372 95.0736 109.415 91.6761 110.819 87.8948C112.223 84.1131 112.951 80.0415 112.951 75.9172H124.572C124.572 81.4011 123.604 86.8436 121.713 91.9387C119.822 97.0341 117.035 101.702 113.486 105.663C109.936 109.624 105.687 112.805 100.961 114.989C96.2338 117.174 91.1403 118.31 85.978 118.31C80.8156 118.31 75.7221 117.174 70.9945 114.989C66.2693 112.805 62.0198 109.624 58.4696 105.663C54.9205 101.702 52.1343 97.0341 50.2429 91.9387C48.3516 86.8436 47.3843 81.4011 47.3843 75.9172H59.0048Z" fill="#232323"/>
<path fill-rule="evenodd" clip-rule="evenodd" d="M81.496 51.2769V83.3357H69.8755V51.2769H81.496Z" fill="#232323"/>
<path fill-rule="evenodd" clip-rule="evenodd" d="M102.08 51.2769V83.3357H90.46V51.2769H102.08Z" fill="#232323"/>
<path d="M23.6031 123.777L22.058 121.442C22.0224 121.388 22.0382 121.339 22.1054 121.295L36.2839 111.944C36.3375 111.908 36.3866 111.924 36.431 111.991L37.9495 114.287C37.9939 114.354 37.9893 114.405 37.9356 114.44L32.3146 118.13L34.3593 121.221L39.967 117.511C40.0207 117.476 40.0653 117.485 40.1008 117.538L41.6194 119.834C41.6638 119.901 41.6591 119.952 41.6054 119.988L27.4669 129.399C27.3998 129.443 27.344 129.432 27.2996 129.365L25.7677 127.049C25.7233 126.982 25.7347 126.927 25.8018 126.882L31.8625 122.873L29.8178 119.782L23.7571 123.791C23.69 123.836 23.6387 123.831 23.6031 123.777Z" fill="#232323"/>
<path d="M31.812 135.695L45.5937 125.306C45.6492 125.27 45.7006 125.273 45.7479 125.317L48.3803 127.751C48.4276 127.795 48.4352 127.846 48.4034 127.904L39.0356 142.374C38.9869 142.439 38.936 142.446 38.8828 142.397L36.8708 140.537C36.8117 140.482 36.8065 140.423 36.8553 140.358L37.8895 138.848L35.4166 136.562L33.9924 137.711C33.9319 137.765 33.875 137.767 33.8218 137.718L31.801 135.849C31.7537 135.806 31.7574 135.754 31.812 135.695ZM43.2884 130.786L43.8049 130.015L43.1023 130.614L37.5748 134.957L39.3208 136.571L43.2884 130.786Z" fill="#232323"/>
<path d="M46.7058 148.532L44.2834 147.176C44.2131 147.137 44.1977 147.082 44.237 147.012L52.578 132.216C52.6094 132.16 52.6532 132.148 52.7094 132.179L56.8591 134.503C58.1791 135.242 58.9957 136.23 59.3089 137.466C59.633 138.699 59.4077 140.007 58.6331 141.39C58.0668 142.402 57.3732 143.171 56.5523 143.698C55.7282 144.214 54.8792 144.495 54.0051 144.54C53.1311 144.586 52.3149 144.396 51.5566 143.972L49.9136 143.051L46.8701 148.486C46.8307 148.556 46.776 148.572 46.7058 148.532ZM55.4258 137.062L53.771 136.163L51.3763 140.439L53.0193 141.36C53.4757 141.615 53.9943 141.62 54.5752 141.373C55.1599 141.12 55.6489 140.642 56.0421 139.939C56.3567 139.378 56.4633 138.833 56.3619 138.306C56.2645 137.772 55.9524 137.357 55.4258 137.062Z" fill="#232323"/>
<path d="M62.2437 156.189L59.565 155.46C59.4874 155.438 59.4591 155.389 59.4803 155.311L63.9921 138.937C64.0091 138.875 64.0486 138.852 64.1107 138.869L68.6995 140.12C70.1592 140.518 71.1906 141.278 71.7936 142.402C72.4065 143.52 72.5045 144.843 72.0877 146.373C71.7831 147.491 71.2962 148.405 70.6273 149.115C69.9527 149.816 69.1969 150.294 68.3598 150.549C67.5228 150.805 66.685 150.819 65.8464 150.59L64.0295 150.095L62.3919 156.105C62.3708 156.182 62.3214 156.211 62.2437 156.189ZM67.9283 142.95L66.1051 142.478L64.8166 147.207L66.6335 147.702C67.1382 147.839 67.6424 147.718 68.1463 147.338C68.6523 146.951 69.0111 146.369 69.2226 145.592C69.3919 144.971 69.3636 144.417 69.1376 143.93C68.9137 143.435 68.5106 143.109 67.9283 142.95Z" fill="#232323"/>
<path d="M81.6521 159.885L78.8171 159.787C78.7608 159.785 78.7337 159.752 78.736 159.687L79.0036 152.667L76.044 142.575C76.0301 142.511 76.0553 142.479 76.1197 142.481L78.8703 142.577C78.9507 142.58 78.9979 142.613 79.0117 142.678L80.6029 149.389L82.6913 142.806C82.7096 142.742 82.7509 142.711 82.8152 142.714L85.59 142.81C85.6543 142.812 85.6773 142.845 85.659 142.909L81.9747 152.673L81.752 159.792C81.7498 159.856 81.7165 159.887 81.6521 159.885Z" fill="#232323"/>
<path d="M107.09 156.737L102.935 158.273C102.874 158.295 102.83 158.268 102.802 158.193L96.9618 142.244C96.9395 142.184 96.9585 142.142 97.0189 142.12L101.48 140.472C102.348 140.151 103.215 140.071 104.081 140.232C104.932 140.398 105.687 140.758 106.346 141.312C107.003 141.859 107.482 142.54 107.783 143.355C108.029 144.02 108.106 144.694 108.016 145.38C107.926 146.065 107.739 146.662 107.455 147.17C108.065 147.451 108.603 147.84 109.07 148.336C109.536 148.833 109.89 149.406 110.13 150.055C110.461 150.954 110.549 151.852 110.392 152.751C110.227 153.652 109.861 154.461 109.293 155.177C108.723 155.885 107.989 156.406 107.09 156.737ZM102.497 143.223L100.73 143.876L102.077 147.522L103.844 146.87C104.38 146.672 104.744 146.323 104.937 145.822C105.127 145.315 105.139 144.838 104.975 144.393C104.794 143.902 104.459 143.541 103.97 143.31C103.479 143.071 102.988 143.042 102.497 143.223ZM104.53 149.807L103.115 150.33L104.606 154.438L106.044 153.907C106.603 153.7 107.007 153.319 107.257 152.764C107.506 152.208 107.528 151.651 107.321 151.093C107.115 150.534 106.738 150.129 106.19 149.876C105.642 149.624 105.089 149.601 104.53 149.807Z" fill="#232323"/>
<path d="M122.994 149.707C122.27 150.201 121.474 150.471 120.609 150.515C119.75 150.556 118.923 150.393 118.129 150.029C117.338 149.653 116.688 149.093 116.18 148.348L111.787 141.861C111.271 141.103 110.989 140.297 110.942 139.442C110.884 138.586 111.036 137.766 111.399 136.984C111.757 136.194 112.295 135.555 113.013 135.065C113.758 134.557 114.55 134.285 115.392 134.247C116.239 134.205 117.054 134.37 117.834 134.744C118.617 135.107 119.264 135.663 119.777 136.415L124.209 142.874C124.717 143.619 125.002 144.423 125.065 145.286C125.125 146.161 124.98 146.99 124.628 147.775C124.277 148.56 123.732 149.204 122.994 149.707ZM121.315 147.244C121.727 146.963 121.973 146.552 122.052 146.011C122.127 145.463 122.021 144.98 121.736 144.561L117.303 138.101C116.995 137.649 116.591 137.364 116.092 137.246C115.593 137.129 115.124 137.22 114.685 137.519C114.267 137.804 114.012 138.202 113.921 138.712C113.83 139.222 113.944 139.709 114.261 140.175L118.674 146.648C118.977 147.094 119.39 147.377 119.911 147.499C120.428 147.614 120.896 147.529 121.315 147.244Z" fill="#232323"/>
<path d="M136.557 138.722L134.644 141.025C134.598 141.081 134.541 141.086 134.474 141.041L119.542 132.437C119.482 132.408 119.473 132.369 119.514 132.32L121.288 130.184C121.329 130.134 121.379 130.124 121.439 130.153L131.039 136.07L123.491 127.682C123.451 127.629 123.458 127.571 123.509 127.509L124.936 125.791C124.977 125.742 125.027 125.731 125.087 125.76L134.703 131.659L127.139 123.29C127.099 123.236 127.1 123.185 127.141 123.135L128.9 121.018C128.951 120.956 128.997 120.952 129.036 121.005L140.22 134.123C140.24 134.149 140.246 134.186 140.239 134.232L140.236 134.293L138.323 136.596C138.292 136.633 138.236 136.638 138.153 136.611L130.518 131.918L136.541 138.552C136.598 138.61 136.603 138.666 136.557 138.722Z" fill="#232323"/>
<path d="M150.725 117.176L147.417 124.451C147.391 124.51 147.341 124.522 147.267 124.489L131.838 117.447C131.765 117.413 131.745 117.36 131.778 117.287L132.918 114.781C132.951 114.708 133.004 114.688 133.078 114.721L145.847 120.554L147.956 115.917C147.989 115.844 148.043 115.824 148.116 115.857L150.665 117.017C150.738 117.05 150.758 117.103 150.725 117.176Z" fill="#232323"/>
<path d="M148.617 45.8484L150.225 48.1411C150.262 48.1938 150.248 48.2433 150.182 48.2895L136.263 58.0235C136.211 58.0604 136.161 58.046 136.115 57.9801L134.534 55.7269C134.488 55.6611 134.492 55.6096 134.544 55.5727L140.063 51.7311L137.934 48.6973L132.43 52.5585C132.377 52.5955 132.332 52.5877 132.295 52.5349L130.715 50.2818C130.669 50.2159 130.672 50.1645 130.725 50.1275L144.601 40.3342C144.667 40.288 144.723 40.2979 144.769 40.3637L146.364 42.6367C146.41 42.7026 146.4 42.7586 146.334 42.8048L140.385 46.9781L142.513 50.0119L148.463 45.8387C148.528 45.7925 148.58 45.7957 148.617 45.8484Z" fill="#232323"/>
<path d="M140.086 34.1589L126.593 44.92C126.538 44.9578 126.487 44.9555 126.438 44.9131L123.741 42.5519C123.692 42.5095 123.683 42.4588 123.713 42.3997L132.683 27.6794C132.73 27.6136 132.781 27.6045 132.835 27.6522L134.897 29.4569C134.958 29.5099 134.965 29.5693 134.918 29.6352L133.925 31.1726L136.459 33.3908L137.852 32.2031C137.911 32.1479 137.967 32.1441 138.022 32.1918L140.093 34.0045C140.141 34.0469 140.139 34.0984 140.086 34.1589ZM128.748 39.3787L128.253 40.1644L128.939 39.5456L134.346 35.0541L132.556 33.4879L128.748 39.3787Z" fill="#232323"/>
<path d="M124.848 21.7326L127.306 23.0226C127.378 23.06 127.395 23.1143 127.357 23.1856L119.423 38.2027C119.393 38.2597 119.349 38.2733 119.292 38.2434L115.081 36.0335C113.741 35.3305 112.898 34.3654 112.551 33.1384C112.194 31.9147 112.383 30.6009 113.12 29.1971C113.658 28.1709 114.331 27.3832 115.137 26.8338C115.947 26.2953 116.788 25.9914 117.66 25.9221C118.533 25.8528 119.354 26.0201 120.123 26.4239L121.791 27.2989L124.685 21.7834C124.722 21.7121 124.777 21.6952 124.848 21.7326ZM116.444 33.436L118.123 34.2896L120.4 29.9498L118.732 29.0748C118.269 28.8318 117.751 28.8414 117.177 29.1038C116.599 29.3732 116.123 29.8643 115.749 30.5769C115.45 31.147 115.358 31.6941 115.474 32.2183C115.586 32.7497 115.909 33.1556 116.444 33.436Z" fill="#232323"/>
<path d="M109.107 14.5019L111.804 15.1586C111.883 15.1776 111.912 15.2262 111.893 15.3044L107.829 31.7955C107.814 31.8581 107.775 31.8817 107.713 31.8665L103.092 30.7417C101.622 30.3838 100.57 29.6516 99.9364 28.5449C99.2933 27.4442 99.1592 26.1236 99.5341 24.5832C99.8082 23.4572 100.27 22.5302 100.919 21.802C101.575 21.0836 102.317 20.5851 103.147 20.3067C103.977 20.0283 104.814 19.9919 105.658 20.1974L107.488 20.6428L108.961 14.5907C108.98 14.5125 109.029 14.4829 109.107 14.5019ZM103.785 27.8915L105.621 28.3135L106.78 23.5515L104.95 23.1062C104.442 22.9825 103.941 23.1173 103.448 23.5108C102.953 23.912 102.61 24.5036 102.419 25.2855C102.267 25.9111 102.311 26.4641 102.55 26.9448C102.787 27.4332 103.199 27.7488 103.785 27.8915Z" fill="#232323"/>
<path d="M89.6051 11.3367L92.4418 11.3576C92.4981 11.3581 92.5261 11.3905 92.5256 11.4548L92.4495 18.48L95.6831 28.4871C95.6988 28.5516 95.6744 28.5836 95.61 28.5832L92.8578 28.5628C92.7773 28.5622 92.7293 28.5297 92.7137 28.4652L90.9401 21.8006L89.032 28.438C89.0155 28.5022 88.975 28.5341 88.9106 28.5336L86.1343 28.5131C86.0699 28.5126 86.046 28.4803 86.0626 28.416L89.4793 18.5546L89.5078 11.4325C89.5083 11.3681 89.5407 11.3362 89.6051 11.3367Z" fill="#232323"/>
<path d="M64.2623 15.1769L68.3746 13.529C68.4343 13.5051 68.4792 13.5305 68.5091 13.6052L74.7821 29.3887C74.806 29.4485 74.7881 29.4903 74.7283 29.5143L70.3135 31.2834C69.4545 31.6277 68.59 31.7313 67.7202 31.5944C66.8653 31.4515 66.1007 31.112 65.4264 30.5759C64.7551 30.0473 64.2578 29.3797 63.9345 28.5729C63.6711 27.9155 63.575 27.2431 63.6463 26.5556C63.7176 25.8682 63.8883 25.2666 64.1585 24.7508C63.5411 24.4867 62.9925 24.1127 62.5124 23.6288C62.0324 23.145 61.6637 22.5818 61.4063 21.9394C61.0501 21.0504 60.9382 20.1546 61.0706 19.2519C61.2105 18.3462 61.5544 17.5278 62.1024 16.7967C62.6534 16.0731 63.3733 15.5332 64.2623 15.1769ZM69.2224 28.5606L70.9704 27.8601L69.5245 24.2521L67.7765 24.9525C67.2462 25.1651 66.8915 25.524 66.7125 26.0292C66.5364 26.5419 66.5367 27.0186 66.7134 27.4593C66.9079 27.9449 67.2526 28.2966 67.7474 28.5144C68.2452 28.7398 68.7368 28.7552 69.2224 28.5606ZM67.0103 22.0345L68.4109 21.4732L66.8079 17.408L65.3848 17.9782C64.8321 18.1997 64.4385 18.5915 64.2043 19.1536C63.97 19.7156 63.9636 20.273 64.1851 20.8258C64.4067 21.3786 64.7947 21.7736 65.3493 22.0109C65.9038 22.2481 66.4575 22.256 67.0103 22.0345Z" fill="#232323"/>
<path d="M48.5555 22.638C49.2666 22.1243 50.0541 21.8334 50.9182 21.7651C51.7757 21.7016 52.6063 21.8412 53.4099 22.184C54.2116 22.538 54.8764 23.0803 55.4042 23.8109L59.9723 30.1756C60.5096 30.9193 60.8132 31.7175 60.8833 32.5704C60.9645 33.425 60.8347 34.2485 60.4937 35.0408C60.1575 35.8397 59.6371 36.4936 58.9326 37.0025C58.202 37.5304 57.4168 37.8246 56.577 37.8852C55.7307 37.9505 54.9123 37.8071 54.1217 37.4549C53.3294 37.1139 52.667 36.5749 52.1344 35.8377L47.5272 29.5013C46.9994 28.7707 46.6925 27.9748 46.6065 27.1137C46.5223 26.2413 46.6451 25.408 46.9748 24.6139C47.3045 23.8197 47.8314 23.1611 48.5555 22.638ZM50.3015 25.0549C49.8971 25.3471 49.6626 25.7647 49.5982 26.3076C49.5385 26.8571 49.657 27.3373 49.9539 27.7483L54.5612 34.0847C54.8816 34.5283 55.2928 34.802 55.7948 34.906C56.2968 35.01 56.7631 34.9064 57.1936 34.5954C57.6046 34.2985 57.8485 33.894 57.9253 33.3819C58.002 32.8697 57.8755 32.3853 57.5456 31.9287L52.9579 25.5781C52.6422 25.1411 52.2221 24.8688 51.6976 24.7612C51.1779 24.6601 50.7125 24.758 50.3015 25.0549Z" fill="#232323"/>
<path d="M35.2975 33.9888L37.1466 31.6345C37.1914 31.5776 37.2479 31.5708 37.3161 31.6141L52.4775 39.8078C52.538 39.8349 52.5484 39.8738 52.5087 39.9244L50.7937 42.1078C50.754 42.1585 50.7038 42.1702 50.6432 42.1431L40.8853 36.4897L48.6598 44.6683C48.7005 44.7207 48.696 44.7786 48.6463 44.8419L47.2669 46.5981C47.2271 46.6487 47.177 46.6605 47.1164 46.6334L37.3435 40.9989L45.133 49.1586C45.1737 49.211 45.1742 49.2625 45.1344 49.3132L43.4344 51.4776C43.3847 51.5409 43.3395 51.5463 43.2988 51.4939L31.7612 38.6866C31.7409 38.6604 31.7336 38.624 31.7395 38.5774L31.7408 38.5171L33.59 36.1628C33.6198 36.1248 33.6763 36.118 33.7595 36.1424L41.5199 40.626L35.3179 34.1583C35.2595 34.1023 35.2527 34.0458 35.2975 33.9888Z" fill="#232323"/>
<path d="M21.7222 55.9128L24.8304 48.5509C24.8555 48.4916 24.9051 48.4776 24.9792 48.5089L40.5945 55.1279C40.6686 55.1592 40.69 55.212 40.6587 55.2861L39.5882 57.8216C39.5569 57.8958 39.5042 57.9172 39.4301 57.8859L26.506 52.4031L24.5246 57.096C24.4933 57.1702 24.4406 57.1916 24.3665 57.1603L21.7864 56.071C21.7123 56.0397 21.6909 55.987 21.7222 55.9128Z" fill="#232323"/>
</svg>
