<svg width="273" height="37" viewBox="0 0 273 37" fill="none" xmlns="http://www.w3.org/2000/svg">
<path d="M63.8575 36.1741H58.1432C58.0118 36.1741 57.9462 36.092 57.9462 35.9278L57.9954 1.2727C57.9954 1.14134 58.0775 1.07566 58.2417 1.07566H63.8575C64.0217 1.07566 64.1038 1.14134 64.1038 1.2727L64.0545 14.9919H71.6161V1.2727C71.6161 1.14134 71.6818 1.07566 71.8131 1.07566H77.4289C77.5931 1.07566 77.6752 1.14134 77.6752 1.2727L77.7737 35.9278C77.7737 36.092 77.6916 36.1741 77.5274 36.1741H71.8624C71.6982 36.1741 71.6161 36.092 71.6161 35.9278V21.1002H64.0545V35.9278C64.0545 36.092 63.9888 36.1741 63.8575 36.1741Z" fill="black"/>
<path d="M80.1875 35.9278L86.4436 1.2727C86.4765 1.14134 86.5586 1.07566 86.6899 1.07566H94.0052C94.1365 1.07566 94.2186 1.14134 94.2515 1.2727L100.261 35.9278C100.278 36.092 100.212 36.1741 100.064 36.1741H94.4732C94.3089 36.1741 94.2186 36.092 94.2022 35.9278L93.6603 32.2332H86.7884L86.2466 35.9278C86.2302 36.092 86.1481 36.1741 86.0003 36.1741H80.3845C80.2532 36.1741 80.1875 36.092 80.1875 35.9278ZM90.5815 12.6766L90.286 10.8047L90.0643 12.6766L87.7983 26.8391H92.6505L90.5815 12.6766Z" fill="black"/>
<path d="M109.325 36.1741H103.66C103.496 36.1741 103.414 36.092 103.414 35.9278L103.513 1.2727C103.513 1.14134 103.578 1.07566 103.71 1.07566H113.414C116.501 1.07566 118.939 2.01982 120.729 3.90816C122.535 5.78008 123.439 8.33343 123.439 11.5682C123.439 13.9328 122.971 15.9935 122.035 17.7505C121.082 19.491 119.851 20.8375 118.34 21.7899C116.829 22.7423 115.187 23.2184 113.414 23.2184H109.572V35.9278C109.572 36.092 109.49 36.1741 109.325 36.1741ZM113.414 7.06086L109.572 7.11012V17.1101H113.414C114.481 17.1101 115.409 16.6011 116.197 15.583C116.985 14.5485 117.379 13.2103 117.379 11.5682C117.379 10.2546 117.026 9.17908 116.32 8.34164C115.614 7.48779 114.646 7.06086 113.414 7.06086Z" fill="black"/>
<path d="M132.774 36.1741H127.109C126.944 36.1741 126.862 36.092 126.862 35.9278L126.961 1.2727C126.961 1.14134 127.026 1.07566 127.158 1.07566H136.862C139.949 1.07566 142.388 2.01982 144.177 3.90816C145.984 5.78008 146.887 8.33343 146.887 11.5682C146.887 13.9328 146.419 15.9935 145.483 17.7505C144.53 19.491 143.299 20.8375 141.788 21.7899C140.278 22.7423 138.636 23.2184 136.862 23.2184H133.02V35.9278C133.02 36.092 132.938 36.1741 132.774 36.1741ZM136.862 7.06086L133.02 7.11012V17.1101H136.862C137.93 17.1101 138.857 16.6011 139.645 15.583C140.434 14.5485 140.828 13.2103 140.828 11.5682C140.828 10.2546 140.475 9.17908 139.769 8.34164C139.063 7.48779 138.094 7.06086 136.862 7.06086Z" fill="black"/>
<path d="M159.793 36.1741H154.005C153.89 36.1741 153.833 36.1084 153.833 35.977L153.882 21.6421L147.133 1.2727C147.1 1.14134 147.15 1.07566 147.281 1.07566H152.897C153.061 1.07566 153.159 1.14134 153.192 1.2727L156.911 14.8441L160.704 1.2727C160.737 1.14134 160.819 1.07566 160.951 1.07566H166.616C166.747 1.07566 166.796 1.14134 166.764 1.2727L159.941 21.4451L159.99 35.977C159.99 36.1084 159.925 36.1741 159.793 36.1741Z" fill="black"/>
<path d="M187.176 36.1741H178.136C178.005 36.1741 177.939 36.092 177.939 35.9278L178.038 1.2727C178.038 1.14134 178.103 1.07566 178.235 1.07566H187.939C189.827 1.07566 191.543 1.53542 193.087 2.45496C194.598 3.3745 195.788 4.59781 196.658 6.1249C197.529 7.63557 197.964 9.2776 197.964 11.051C197.964 12.496 197.635 13.8424 196.978 15.0904C196.322 16.3383 195.542 17.3482 194.639 18.1199C195.607 19.0887 196.363 20.2135 196.905 21.4943C197.446 22.7751 197.717 24.1216 197.717 25.5337C197.717 27.4877 197.249 29.2693 196.313 30.8785C195.361 32.4877 194.088 33.7767 192.496 34.7455C190.903 35.6979 189.13 36.1741 187.176 36.1741ZM187.939 7.06086H184.097V14.9919H187.939C189.105 14.9919 190.049 14.5814 190.772 13.7603C191.494 12.9229 191.855 12.0198 191.855 11.051C191.855 9.98368 191.469 9.05593 190.698 8.26775C189.926 7.46316 189.006 7.06086 187.939 7.06086ZM187.176 21.1002H184.097L184.047 30.0165H187.176C188.391 30.0165 189.433 29.5731 190.304 28.6864C191.174 27.7997 191.609 26.7488 191.609 25.5337C191.609 24.3186 191.174 23.2759 190.304 22.4056C189.433 21.5354 188.391 21.1002 187.176 21.1002Z" fill="black"/>
<path d="M210.673 36.6667C208.883 36.6667 207.233 36.2069 205.722 35.2874C204.228 34.3678 203.021 33.1445 202.102 31.6174C201.198 30.0739 200.747 28.3826 200.747 26.5436L200.796 10.5584C200.796 8.68647 201.248 7.00339 202.151 5.50914C203.038 3.99847 204.236 2.79158 205.747 1.88846C207.258 0.968924 208.9 0.509155 210.673 0.509155C212.512 0.509155 214.162 0.960714 215.624 1.86383C217.102 2.76695 218.284 3.98205 219.171 5.50914C220.074 7.01981 220.525 8.70289 220.525 10.5584L220.574 26.5436C220.574 28.3826 220.131 30.0657 219.244 31.5928C218.341 33.1363 217.143 34.3678 215.648 35.2874C214.154 36.2069 212.496 36.6667 210.673 36.6667ZM210.673 30.583C211.691 30.583 212.578 30.1725 213.333 29.3514C214.088 28.514 214.466 27.578 214.466 26.5436L214.417 10.5584C214.417 9.44181 214.064 8.49764 213.358 7.72588C212.652 6.95413 211.757 6.56825 210.673 6.56825C209.639 6.56825 208.752 6.94592 208.013 7.70125C207.274 8.45659 206.905 9.40896 206.905 10.5584V26.5436C206.905 27.6437 207.274 28.5961 208.013 29.4007C208.752 30.1889 209.639 30.583 210.673 30.583Z" fill="black"/>
<path d="M235.156 36.1741H229.047C228.9 36.1741 228.817 36.092 228.801 35.9278L222.84 1.2727C222.808 1.14134 222.857 1.07566 222.988 1.07566H228.653C228.785 1.07566 228.867 1.14134 228.9 1.2727L232.126 24.0559L235.451 1.2727C235.484 1.14134 235.583 1.07566 235.747 1.07566H240.303C240.435 1.07566 240.517 1.14134 240.55 1.2727L243.826 24.0559L247.101 1.2727C247.134 1.14134 247.216 1.07566 247.348 1.07566H252.964C253.128 1.07566 253.193 1.14134 253.161 1.2727L247.151 35.9278C247.134 35.9935 247.085 36.0509 247.003 36.1002L246.904 36.1741H240.796C240.698 36.1741 240.615 36.092 240.55 35.9278L237.964 17.8244L235.402 35.9278C235.386 36.092 235.303 36.1741 235.156 36.1741Z" fill="black"/>
<path d="M272.619 36.1741H256.313C256.182 36.1741 256.116 36.092 256.116 35.9278L256.165 1.32196C256.165 1.15776 256.248 1.07566 256.412 1.07566H262.028C262.192 1.07566 262.274 1.15776 262.274 1.32196L262.225 29.9672H272.619C272.783 29.9672 272.865 30.0493 272.865 30.2135V35.9278C272.865 36.092 272.783 36.1741 272.619 36.1741Z" fill="black"/>
<path fill-rule="evenodd" clip-rule="evenodd" d="M7.11362 13.871C7.11362 16.0887 7.5054 18.2781 8.26023 20.3116C9.015 22.3449 10.1138 24.1718 11.4793 25.6955C12.8442 27.2186 14.4458 28.4061 16.1825 29.2088C17.9179 30.011 19.7637 30.4179 21.6178 30.4179C23.4719 30.4179 25.3176 30.011 27.0531 29.2088C28.7898 28.4061 30.3914 27.2186 31.7563 25.6955C33.1217 24.1718 34.2206 22.3449 34.9753 20.3116C35.7302 18.2781 36.1219 16.0887 36.1219 13.871H42.3706C42.3706 16.8198 41.8504 19.7463 40.8334 22.4861C39.8163 25.226 38.3182 27.7362 36.4097 29.8658C34.5007 31.996 32.2156 33.7065 29.6748 34.8809C27.1326 36.0559 24.3937 36.6666 21.6178 36.6666C18.8419 36.6666 16.103 36.0559 13.5608 34.8809C11.0199 33.7065 8.73486 31.996 6.82584 29.8658C4.9174 27.7362 3.41922 25.226 2.40216 22.4861C1.38516 19.7463 0.86499 16.8198 0.86499 13.871H7.11362Z" fill="black"/>
<path fill-rule="evenodd" clip-rule="evenodd" d="M19.2076 0.621216V17.8601H12.959V0.621216H19.2076Z" fill="black"/>
<path fill-rule="evenodd" clip-rule="evenodd" d="M30.2766 0.621216V17.8601H24.028V0.621216H30.2766Z" fill="black"/>
</svg>
