<svg width="70" height="70" viewBox="0 0 70 70" fill="none" xmlns="http://www.w3.org/2000/svg">
<path fill-rule="evenodd" clip-rule="evenodd" d="M34.8537 69.632C53.9804 69.632 69.4856 54.1267 69.4856 35C69.4856 15.8733 53.9804 0.368042 34.8537 0.368042C15.7269 0.368042 0.22168 15.8733 0.22168 35C0.22168 54.1267 15.7269 69.632 34.8537 69.632Z" fill="#FAF4EE"/>
<path fill-rule="evenodd" clip-rule="evenodd" d="M20.3492 30.2271C20.3492 32.4448 20.741 34.6342 21.4958 36.6677C22.2506 38.701 23.3494 40.5279 24.7149 42.0516C26.0798 43.5747 27.6814 44.7622 29.4181 45.5649C31.1535 46.367 32.9993 46.774 34.8534 46.774C36.7075 46.774 38.5532 46.367 40.2887 45.5649C42.0254 44.7622 43.627 43.5747 44.9919 42.0516C46.3573 40.5279 47.4562 38.701 48.2109 36.6677C48.9658 34.6342 49.3575 32.4448 49.3575 30.2271H55.6062C55.6062 33.1759 55.086 36.1024 54.069 38.8422C53.0519 41.5821 51.5538 44.0923 49.6453 46.2218C47.7363 48.3521 45.4512 50.0625 42.9103 51.237C40.3682 52.412 37.6293 53.0226 34.8534 53.0226C32.0775 53.0226 29.3386 52.412 26.7964 51.237C24.2555 50.0625 21.9705 48.3521 20.0614 46.2218C18.153 44.0923 16.6548 41.5821 15.6378 38.8422C14.6208 36.1024 14.1006 33.1759 14.1006 30.2271H20.3492Z" fill="#232323"/>
<path fill-rule="evenodd" clip-rule="evenodd" d="M32.4432 16.9773V34.2162H26.1946V16.9773H32.4432Z" fill="#232323"/>
<path fill-rule="evenodd" clip-rule="evenodd" d="M43.5121 16.9773V34.2162H37.2634V16.9773H43.5121Z" fill="#232323"/>
</svg>
