<svg width="42" height="37" viewBox="0 0 42 37" fill="none" xmlns="http://www.w3.org/2000/svg">
<path fill-rule="evenodd" clip-rule="evenodd" d="M6.4957 13.9657C6.4957 16.1834 6.88748 18.3728 7.64231 20.4063C8.39708 22.4396 9.4959 24.2666 10.8614 25.7903C12.2263 27.3133 13.8279 28.5008 15.5646 29.3036C17.3 30.1057 19.1458 30.5126 20.9999 30.5126C22.854 30.5126 24.6997 30.1057 26.4351 29.3036C28.1718 28.5008 29.7735 27.3133 31.1383 25.7903C32.5038 24.2666 33.6026 22.4396 34.3574 20.4063C35.1122 18.3728 35.504 16.1834 35.504 13.9657H41.7527C41.7527 16.9145 41.2325 19.8411 40.2155 22.5808C39.1984 25.3207 37.7002 27.8309 35.7918 29.9605C33.8828 32.0907 31.5977 33.8012 29.0568 34.9756C26.5147 36.1506 23.7758 36.7613 20.9999 36.7613C18.2239 36.7613 15.485 36.1506 12.9429 34.9756C10.402 33.8012 8.11694 32.0907 6.20792 29.9605C4.29948 27.8309 2.8013 25.3207 1.78424 22.5808C0.767244 19.8411 0.24707 16.9145 0.24707 13.9657H6.4957Z" fill="black"/>
<path fill-rule="evenodd" clip-rule="evenodd" d="M18.5897 0.715942V17.9548H12.3411V0.715942H18.5897Z" fill="black"/>
<path fill-rule="evenodd" clip-rule="evenodd" d="M29.6585 0.715942V17.9548H23.4099V0.715942H29.6585Z" fill="black"/>
</svg>
